<svg aria-hidden="true" style="width:0;height:0;position:absolute;overflow:hidden" xmlns="http://www.w3.org/2000/svg"><defs><symbol id="icon-search" viewBox="0 0 32 32"><path fill="#95cc29" style="fill:var(--color1,#95cc29)" d="M12 6c-4.418 0-8 6-8 6s3.582 6 8 6 8-6 8-6-3.582-6-8-6zm0 10a4 4 0 1 1 0-8 4 4 0 0 1 0 8z"/><path fill="#95cc29" style="fill:var(--color1,#95cc29)" d="M14 12a2 2 0 1 1-3.999.001A2 2 0 0 1 14 12z"/><path fill="#666" style="fill:var(--color2,#666)" d="M12 24c2.954 0 5.654-1.072 7.744-2.841l1.691 1.691c-.192.406-.315.834-.314 1.271A2.995 2.995 0 0 0 22 26.242L26.758 31A2.995 2.995 0 0 0 31 31a2.995 2.995 0 0 0 0-4.242L26.242 22a2.995 2.995 0 0 0-2.121-.879c-.437-.001-.865.123-1.271.314l-1.692-1.692A11.936 11.936 0 0 0 24 12C23.999 5.372 18.628.001 12 0 5.372.001.001 5.372 0 12c.001 6.628 5.372 11.999 12 12zm11.414-.586a.993.993 0 0 1 .707-.293.993.993 0 0 1 .707.293l4.758 4.758a.993.993 0 0 1 .293.707.993.993 0 0 1-.293.707.993.993 0 0 1-.707.293.993.993 0 0 1-.707-.293l-4.758-4.758a.993.993 0 0 1-.293-.707.993.993 0 0 1 .293-.707zM4.929 4.929C6.742 3.118 9.235 2 12 2s5.258 1.118 7.071 2.929C20.882 6.742 22 9.235 22 12s-1.118 5.258-2.929 7.071C17.258 20.882 14.765 22 12 22s-5.258-1.118-7.071-2.929C3.118 17.258 2 14.765 2 12s1.118-5.258 2.929-7.071z"/></symbol><symbol id="download" viewBox="0 0 32 32"><path d="M30.608 17.358A6.307 6.307 0 0 0 27.05 15.1a4.077 4.077 0 0 0 .683-2.3c0-1.178-.417-2.183-1.25-3.017s-1.839-1.25-3.017-1.25A4.07 4.07 0 0 0 20.7 9.566c-.655-1.6-1.703-2.883-3.142-3.85s-3.025-1.45-4.758-1.45c-2.355 0-4.367.834-6.033 2.5s-2.5 3.678-2.5 6.033c0 .144.011.383.033.717-1.311.611-2.355 1.528-3.133 2.75S0 18.821 0 20.266c0 2.056.731 3.814 2.192 5.275s3.219 2.192 5.275 2.192h18.134c1.766 0 3.275-.625 4.525-1.875s1.875-2.758 1.875-4.525a6.192 6.192 0 0 0-1.392-3.975zM21.167 18l-5.85 5.85c-.1.1-.228.15-.383.15s-.283-.05-.383-.15l-5.867-5.867a.52.52 0 0 1-.15-.383c0-.144.053-.269.158-.375s.231-.158.375-.158H12.8V11.2c0-.144.053-.269.158-.375s.231-.158.375-.158h3.2c.145 0 .269.053.375.158s.158.231.158.375v5.867h3.733c.156 0 .283.05.383.15s.15.228.15.383a.624.624 0 0 1-.166.4z"/></symbol><symbol id="comment" viewBox="0 0 32 32"><path d="M8.064 2.88h15.872c3.712 0 6.784 3.072 6.784 6.784v5.504c0 3.712-3.072 6.784-6.784 6.784h-6.848l-6.656 6.656c-.064 0-.64.704-1.408.448-.512-.128-.832-.576-.832-1.088v-6.016c-3.84 0-6.912-2.944-6.912-6.784V9.664c0-3.712 3.072-6.784 6.784-6.784zm-.32 14.08c-.384 0-.64-.256-.64-.64s.256-.64.64-.64h9.152c.384 0 .64.256.64.64s-.256.64-.64.64H7.744zm0-3.648a.641.641 0 0 1-.64-.64c0-.384.256-.64.64-.64h16.512c.384 0 .64.256.64.64 0 .32-.256.64-.64.64H7.744zm0-3.712c-.384 0-.64-.256-.64-.64s.256-.64.64-.64h13.248c.32 0 .64.256.64.64s-.32.64-.64.64H7.744zm16.192-4.928H8.064a4.998 4.998 0 0 0-4.992 4.992v5.504a4.998 4.998 0 0 0 4.992 4.992h.32c.832 0 1.6.768 1.6 1.6v4.736l6.336-6.336h7.616a4.998 4.998 0 0 0 4.992-4.992V9.664a4.998 4.998 0 0 0-4.992-4.992z"/></symbol><symbol id="preview" viewBox="0 0 32 32"><path d="M31.879 15.443C29.258 9.748 23.334 4 16 4S2.743 9.748.121 15.443a1.354 1.354 0 0 0 .003 1.123l-.003-.008C2.742 22.253 8.666 28.001 16 28.001s13.257-5.748 15.879-11.443a1.354 1.354 0 0 0-.003-1.123l.003.008zM16 25.333c-5.881 0-10.861-4.736-13.187-9.333C5.138 11.403 10.118 6.667 16 6.667S26.861 11.403 29.187 16c-2.325 4.597-7.305 9.333-13.187 9.333z"/><path d="M16 9.333A6.667 6.667 0 1 0 22.667 16a6.676 6.676 0 0 0-6.666-6.667zM16 20a4 4 0 1 1 4-4 4 4 0 0 1-4 4z"/></symbol><symbol id="like" viewBox="0 0 32 32"><path d="M15.999 30.318c-31.214-17.028-8.639-38.197 0-23.94 8.641-14.257 31.217 6.912 0 23.94z"/></symbol></defs></svg>