<svg aria-hidden="true" style="position: absolute; width: 0; height: 0; overflow: hidden;" version="1.1" xmlns="http://www.w3.org/2000/svg" xmlns:xlink="http://www.w3.org/1999/xlink">
<defs>
<symbol id="icon-search" viewBox="0 0 32 32">
<path fill="#95cc29" style="fill: var(--color1, #95cc29)" d="M12 6c-4.418 0-8 6-8 6s3.582 6 8 6c4.418 0 8-6 8-6s-3.582-6-8-6zM12 16c-2.209 0-4-1.791-4-4s1.791-4 4-4c2.209 0 4 1.791 4 4s-1.791 4-4 4z"></path>
<path fill="#95cc29" style="fill: var(--color1, #95cc29)" d="M14 12c0 1.105-0.895 2-2 2s-2-0.895-2-2c0-1.105 0.895-2 2-2s2 0.895 2 2z"></path>
<path fill="#666" style="fill: var(--color2, #666)" d="M12 24c2.954 0 5.654-1.072 7.744-2.841l1.691 1.691c-0.192 0.406-0.315 0.834-0.314 1.271-0.001 0.764 0.295 1.538 0.879 2.121l4.758 4.758c0.583 0.584 1.357 0.88 2.121 0.879 0.764 0.001 1.538-0.295 2.121-0.879 0.584-0.583 0.88-1.357 0.879-2.121 0.001-0.764-0.295-1.538-0.879-2.121l-4.758-4.758c-0.583-0.584-1.357-0.88-2.121-0.879-0.437-0.001-0.865 0.123-1.271 0.314l-1.692-1.692c1.77-2.089 2.842-4.789 2.842-7.743-0.001-6.628-5.372-11.999-12-12-6.628 0.001-11.999 5.372-12 12 0.001 6.628 5.372 11.999 12 12zM23.414 23.414c0.198-0.197 0.448-0.292 0.707-0.293 0.259 0.001 0.509 0.096 0.707 0.293l4.758 4.758c0.197 0.198 0.292 0.448 0.293 0.707-0.001 0.259-0.096 0.509-0.293 0.707-0.198 0.197-0.448 0.292-0.707 0.293-0.259-0.001-0.509-0.096-0.707-0.293l-4.758-4.758c-0.197-0.198-0.292-0.448-0.293-0.707 0.001-0.259 0.096-0.509 0.293-0.707v0zM4.929 4.929c1.813-1.811 4.306-2.929 7.071-2.929s5.258 1.118 7.071 2.929c1.811 1.813 2.929 4.306 2.929 7.071s-1.118 5.258-2.929 7.071c-1.813 1.811-4.306 2.929-7.071 2.929s-5.258-1.118-7.071-2.929c-1.811-1.813-2.929-4.306-2.929-7.071s1.118-5.258 2.929-7.071z"></path>
</symbol>
</defs>
</svg>
