<svg aria-hidden="true" style="position: absolute; width: 0; height: 0; overflow: hidden;" version="1.1" xmlns="http://www.w3.org/2000/svg" xmlns:xlink="http://www.w3.org/1999/xlink">
<defs>
<symbol id="icon-search" viewBox="0 0 32 32">
<path fill="#95cc29" style="fill: var(--color1, #95cc29)" d="M12 6c-4.418 0-8 6-8 6s3.582 6 8 6c4.418 0 8-6 8-6s-3.582-6-8-6zM12 16c-2.209 0-4-1.791-4-4s1.791-4 4-4c2.209 0 4 1.791 4 4s-1.791 4-4 4z"></path>
<path fill="#95cc29" style="fill: var(--color1, #95cc29)" d="M14 12c0 1.105-0.895 2-2 2s-2-0.895-2-2c0-1.105 0.895-2 2-2s2 0.895 2 2z"></path>
<path fill="#666" style="fill: var(--color2, #666)" d="M12 24c2.954 0 5.654-1.072 7.744-2.841l1.691 1.691c-0.192 0.406-0.315 0.834-0.314 1.271-0.001 0.764 0.295 1.538 0.879 2.121l4.758 4.758c0.583 0.584 1.357 0.88 2.121 0.879 0.764 0.001 1.538-0.295 2.121-0.879 0.584-0.583 0.88-1.357 0.879-2.121 0.001-0.764-0.295-1.538-0.879-2.121l-4.758-4.758c-0.583-0.584-1.357-0.88-2.121-0.879-0.437-0.001-0.865 0.123-1.271 0.314l-1.692-1.692c1.77-2.089 2.842-4.789 2.842-7.743-0.001-6.628-5.372-11.999-12-12-6.628 0.001-11.999 5.372-12 12 0.001 6.628 5.372 11.999 12 12zM23.414 23.414c0.198-0.197 0.448-0.292 0.707-0.293 0.259 0.001 0.509 0.096 0.707 0.293l4.758 4.758c0.197 0.198 0.292 0.448 0.293 0.707-0.001 0.259-0.096 0.509-0.293 0.707-0.198 0.197-0.448 0.292-0.707 0.293-0.259-0.001-0.509-0.096-0.707-0.293l-4.758-4.758c-0.197-0.198-0.292-0.448-0.293-0.707 0.001-0.259 0.096-0.509 0.293-0.707v0zM4.929 4.929c1.813-1.811 4.306-2.929 7.071-2.929s5.258 1.118 7.071 2.929c1.811 1.813 2.929 4.306 2.929 7.071s-1.118 5.258-2.929 7.071c-1.813 1.811-4.306 2.929-7.071 2.929s-5.258-1.118-7.071-2.929c-1.811-1.813-2.929-4.306-2.929-7.071s1.118-5.258 2.929-7.071z"></path>
</symbol>
<symbol id="download" viewBox="0 0 32 32">
<path d="M30.608 17.358c-0.928-1.161-2.114-1.914-3.558-2.258 0.456-0.689 0.683-1.456 0.683-2.3 0-1.178-0.417-2.183-1.25-3.017s-1.839-1.25-3.017-1.25c-1.056 0-1.978 0.344-2.766 1.033-0.655-1.6-1.703-2.883-3.142-3.85s-3.025-1.45-4.758-1.45c-2.355 0-4.367 0.834-6.033 2.5s-2.5 3.678-2.5 6.033c0 0.144 0.011 0.383 0.033 0.717-1.311 0.611-2.355 1.528-3.133 2.75s-1.167 2.555-1.167 4c0 2.056 0.731 3.814 2.192 5.275s3.219 2.192 5.275 2.192h18.134c1.766 0 3.275-0.625 4.525-1.875s1.875-2.758 1.875-4.525c-0-1.489-0.464-2.814-1.392-3.975zM21.167 18l-5.85 5.85c-0.1 0.1-0.228 0.15-0.383 0.15s-0.283-0.050-0.383-0.15l-5.867-5.867c-0.1-0.1-0.15-0.228-0.15-0.383 0-0.144 0.053-0.269 0.158-0.375s0.231-0.158 0.375-0.158h3.733v-5.867c0-0.144 0.053-0.269 0.158-0.375s0.231-0.158 0.375-0.158h3.2c0.145 0 0.269 0.053 0.375 0.158s0.158 0.231 0.158 0.375v5.867h3.733c0.156 0 0.283 0.050 0.383 0.15s0.15 0.228 0.15 0.383c0 0.134-0.055 0.267-0.166 0.4z"></path>
</symbol>
<symbol id="comment" viewBox="0 0 32 32">
<path d="M8.064 2.88h15.872c3.712 0 6.784 3.072 6.784 6.784v5.504c0 3.712-3.072 6.784-6.784 6.784h-6.848l-6.656 6.656c-0.064 0-0.64 0.704-1.408 0.448-0.512-0.128-0.832-0.576-0.832-1.088v-6.016c-3.84 0-6.912-2.944-6.912-6.784v-5.504c0-3.712 3.072-6.784 6.784-6.784zM7.744 16.96c-0.384 0-0.64-0.256-0.64-0.64s0.256-0.64 0.64-0.64h9.152c0.384 0 0.64 0.256 0.64 0.64s-0.256 0.64-0.64 0.64h-9.152zM7.744 13.312c-0.384 0-0.64-0.32-0.64-0.64 0-0.384 0.256-0.64 0.64-0.64h16.512c0.384 0 0.64 0.256 0.64 0.64 0 0.32-0.256 0.64-0.64 0.64h-16.512zM7.744 9.6c-0.384 0-0.64-0.256-0.64-0.64s0.256-0.64 0.64-0.64h13.248c0.32 0 0.64 0.256 0.64 0.64s-0.32 0.64-0.64 0.64h-13.248zM23.936 4.672h-15.872c-2.752 0-4.992 2.24-4.992 4.992v5.504c0 2.752 2.24 4.992 4.992 4.992h0.32c0.832 0 1.6 0.768 1.6 1.6v4.736l6.336-6.336h7.616c2.752 0 4.992-2.24 4.992-4.992v-5.504c0-2.752-2.24-4.992-4.992-4.992z"></path>
</symbol>
<symbol id="preview" viewBox="0 0 32 32">
<path d="M31.879 15.443c-2.621-5.695-8.545-11.443-15.879-11.443s-13.257 5.748-15.879 11.443c-0.076 0.164-0.121 0.355-0.121 0.557s0.045 0.394 0.124 0.566l-0.003-0.008c2.621 5.695 8.545 11.443 15.879 11.443s13.257-5.748 15.879-11.443c0.076-0.164 0.121-0.355 0.121-0.557s-0.045-0.394-0.124-0.566l0.003 0.008zM16 25.333c-5.881 0-10.861-4.736-13.187-9.333 2.325-4.597 7.305-9.333 13.187-9.333s10.861 4.736 13.187 9.333c-2.325 4.597-7.305 9.333-13.187 9.333z"></path>
<path d="M16 9.333c-3.682 0-6.667 2.985-6.667 6.667s2.985 6.667 6.667 6.667c3.682 0 6.667-2.985 6.667-6.667v0c-0.005-3.68-2.987-6.662-6.666-6.667h-0zM16 20c-2.209 0-4-1.791-4-4s1.791-4 4-4c2.209 0 4 1.791 4 4v0c0 2.209-1.791 4-4 4v0z"></path>
</symbol>
<symbol id="like" viewBox="0 0 32 32">
<path d="M15.999 30.318c-31.214-17.028-8.639-38.197 0-23.94 8.641-14.257 31.217 6.912 0 23.94z"></path>
</symbol>
</defs>
</svg>
